<?xml version="1.0" encoding="UTF-8" standalone="no"?>
<!-- Created with Inkscape (http://www.inkscape.org/) -->

<svg
   width="833.77881"
   height="834.13"
   viewBox="0 0 833.77881 834.13001"
   version="1.1"
   id="svg1"
   xml:space="preserve"
   xmlns="http://www.w3.org/2000/svg"
   xmlns:svg="http://www.w3.org/2000/svg"><defs
     id="defs1"><clipPath
       clipPathUnits="userSpaceOnUse"
       id="clipPath337"><path
         id="path338"
         style="fill:#ff0000;fill-opacity:1;fill-rule:nonzero;stroke:none"
         d="m 816.67133,116.03566 v 825.08398 h 349.82617 c 0.5418,-1.13618 0.9622,-1.93109 1.7773,-3.62695 0.3811,-0.79276 0.7385,-1.5961 1.1075,-2.39453 1.2075,-2.94427 2.5157,-5.84637 3.7539,-8.77735 0.5143,-1.21759 1.69,-4.21918 2.2246,-5.40429 0.4588,-1.01705 0.9699,-2.00896 1.4551,-3.01368 0.5906,-0.98841 1.1631,-1.98726 1.7714,-2.96484 1.5838,-2.54499 1.4316,-2.01597 2.7754,-4.44336 0.3316,-0.59896 0.6109,-1.22542 0.9356,-1.82812 0.6992,-1.2978 1.4422,-2.57269 2.1582,-3.86133 0.4673,-0.74767 1.8249,-2.88556 2.2949,-3.75196 0.2984,-0.54997 0.5423,-1.12692 0.8242,-1.68554 0.4202,-0.8326 0.8626,-1.65493 1.2813,-2.48828 0.3975,-0.79121 0.738,-1.61265 1.1679,-2.38672 0.6685,-1.20351 1.4166,-2.36058 2.125,-3.54102 0.6683,-1.00378 1.3228,-2.01662 2.004,-3.01172 0.5019,-0.73332 1.0492,-1.43434 1.5449,-2.17187 0.6574,-0.97809 1.7244,-3.0019 2.1836,-3.79883 1.5977,-2.77311 1.6235,-2.75621 3.2304,-5.28516 0.8801,-1.18983 1.8363,-2.36844 2.4883,-3.71093 1.6205,-3.33637 -1.8637,3.19081 1.2852,-2.73633 0.3183,-0.59921 0.6664,-1.18065 1,-1.77149 0.2746,-0.48108 0.5313,-0.97317 0.8242,-1.44336 0.1319,-0.21179 1.6642,-2.46002 1.9219,-2.93945 0.1167,-0.21716 0.1687,-0.46396 0.2539,-0.69531 0.2606,-0.54024 0.4926,-1.09638 0.7832,-1.62109 0.3875,-0.69962 0.8333,-1.36424 1.25,-2.04688 0.4234,-0.58582 0.8572,-1.16412 1.2695,-1.75781 1.0742,-1.54678 0.4976,-0.80859 1.4492,-2.32813 1.1361,-1.81405 2.3598,-3.57503 3.5215,-5.37304 1.8111,-2.7095 0.2732,-0.45404 1.916,-2.76368 0.2802,-0.39395 0.8943,-1.32395 1.1602,-1.66992 3.07,-3.99539 -0.3271,0.57802 1.5762,-1.99804 0.2331,-0.32516 0.4756,-0.6428 0.6992,-0.97461 0.4091,-0.60719 1.3091,-2.05555 1.6992,-2.67969 0.3626,-0.58018 0.747,-1.1469 1.0976,-1.73438 0.061,-0.10275 -0.1392,0.19382 -0.2089,0.29102 1.008,-1.65103 0.6468,-1.15229 1.4453,-2.25 0.094,-0.12925 -0.1528,0.29046 -0.2774,0.39062 -0.085,0.0681 0.1023,-0.19071 0.1524,-0.28711 0.037,-0.0717 0.059,-0.15399 0.1094,-0.21679 0.5956,-0.73397 1.2174,-1.44675 1.8261,-2.16992 l 7.8965,9.68945 c 0.4681,-0.60861 0.9126,-1.23641 1.4043,-1.82617 0.1346,-0.16143 -0.1842,0.3784 -0.2891,0.56054 -0.2276,0.39549 -0.4482,0.79431 -0.6894,1.18164 -0.099,0.15919 -0.1496,0.41158 -0.332,0.45508 -0.029,0.007 -0.034,-0.008 -0.035,-0.0254 -0.1622,0.32955 -0.3217,0.66036 -0.498,0.98242 -0.302,0.55137 -0.6744,1.0628 -1.0079,1.59571 -0.9645,1.54133 -1.9138,3.09634 -3.0136,4.54687 -0.3224,0.42215 -0.6445,0.84542 -0.9668,1.26758 -0.1174,0.1263 -0.2482,0.24241 -0.3535,0.37891 -0.2119,0.27462 -0.3993,0.56703 -0.5977,0.85156 -0.741,1.06278 -1.5178,2.09627 -2.2148,3.18945 -0.4353,0.67294 -0.8671,1.34941 -1.3067,2.01953 -0.6516,0.9934 -1.3439,1.95999 -1.9746,2.9668 -1.2981,2.07233 -0.6485,1.23111 -2.1035,3.31641 -0.254,0.364 -0.5328,0.71114 -0.7988,1.0664 -0.1835,0.26338 -0.3939,0.51102 -0.5508,0.79102 -0.6522,1.16388 -1.1084,2.42899 -1.752,3.59765 -1.167,2.11928 -0.6185,0.8291 -1.6054,2.41407 -0.2918,0.46864 -0.5467,0.96 -0.8204,1.43945 -0.6953,1.20188 -0.7513,1.24648 -1.371,2.53125 -0.3209,0.66515 -0.5946,1.35173 -0.9336,2.00781 -0.7717,1.49326 -1.7398,2.89439 -2.7871,4.20508 -1.43,2.23765 -1.4153,2.16701 -2.8692,4.68555 -0.5686,0.98496 -1.0988,1.99256 -1.6758,2.97265 -1.3161,2.23581 -1.0963,1.69829 -2.5605,3.82422 -0.5847,0.84886 -1.1467,1.71228 -1.7207,2.56836 -0.5254,0.84633 -1.0931,1.66789 -1.5762,2.53906 -0.4708,0.84906 -0.8474,1.74766 -1.2832,2.61524 -1.4153,2.81786 -2.8057,5.65888 -4.584,8.27148 -0.658,1.18402 -1.3436,2.35162 -1.9883,3.54297 -0.4399,0.81308 -0.8351,1.65054 -1.2871,2.45703 -1.3427,2.39597 -1.438,2.36686 -2.8418,4.55664 -0.4117,0.64225 -0.8087,1.2944 -1.2129,1.94141 -0.3846,0.78174 -0.7956,1.55172 -1.1543,2.3457 -0.3991,0.88367 -1.9703,4.79932 -2.3066,5.59571 -1.2744,3.0181 -2.619,6.00732 -3.8711,9.03515 -0.1188,0.25568 -0.2378,0.51131 -0.3555,0.76758 h 465.2207 V 116.03566 Z m 648.18947,633.15039 c 0.2547,0.28458 0.5109,0.56893 0.7656,0.85351 0.3195,0.36937 0.6375,0.73805 0.957,1.10742 0.2059,0.24401 0.4091,0.49032 0.6172,0.73243 0.2298,0.26729 0.472,0.52582 0.6973,0.79687 0.3907,0.47002 0.744,0.96986 1.1328,1.44141 0.2477,0.3003 0.5049,0.59085 0.7578,0.88672 2.4484,2.61444 -0.7596,-0.78337 2.3301,2.38086 1.3183,1.35011 1.7705,1.87545 3.0156,3.29687 1.8671,2.13146 1.2789,1.44491 2.9844,3.55078 0.3704,0.46874 0.7331,0.94381 1.1113,1.40625 0.7536,0.92142 1.8446,2.16311 2.6114,3.04883 0.4485,0.5181 0.8874,1.04713 1.3457,1.55664 1.474,1.63904 2.8962,3.0693 4.4472,4.67188 3.4183,3.68754 4.1242,4.28917 7.2383,8.30078 4.9108,6.32612 3.4592,4.8411 8.0723,11.16992 4.5501,6.24244 4.9659,6.61551 9.6972,12.47266 1.641,1.95913 3.268,3.9304 4.9239,5.87695 3.099,3.64297 3.7531,4.23688 6.8496,7.85351 1.0298,1.20286 2.0648,2.40189 3.0488,3.64258 2.0509,2.5859 2.3897,3.2176 4.0762,5.79883 l -5.4766,3.01172 c -1.4639,-2.20707 -1.8147,-2.82364 -3.6113,-5.07617 -0.9121,-1.14353 -1.8732,-2.24773 -2.8262,-3.35742 -2.4613,-2.86612 -4.3174,-4.88222 -6.7754,-7.77149 -1.6812,-1.97619 -3.3317,-3.97802 -4.998,-5.9668 -4.8129,-5.95648 -5.2571,-6.36081 -9.9043,-12.73046 -4.5733,-6.26831 -3.3318,-5.06494 -8.0957,-11.19727 -2.9083,-3.74359 -3.6129,-4.35151 -6.7989,-7.77344 -1.5942,-1.64601 -2.9393,-2.99924 -4.4472,-4.67383 -0.5072,-0.56328 -0.9937,-1.14412 -1.4903,-1.71679 -0.7693,-0.88721 -1.9075,-2.18609 -2.6601,-3.10547 -0.4207,-0.51388 -0.8257,-1.04214 -1.2383,-1.5625 -1.6513,-2.03831 -1.0377,-1.32189 -2.7988,-3.32813 -1.2175,-1.3869 -1.5707,-1.80643 -2.836,-3.09765 -3.021,-3.08298 0.5608,0.68704 -2.3496,-2.40235 -0.8267,-0.85421 -1.4969,-1.83823 -2.2539,-2.75 -0.1479,-0.17813 -0.3114,-0.34252 -0.4629,-0.51757 -0.2386,-0.27575 -0.4714,-0.5556 -0.707,-0.83399 -0.3037,-0.35086 -0.6065,-0.70186 -0.9102,-1.05273 -0.231,-0.25776 -0.4622,-0.51568 -0.6933,-0.77344 z" /></clipPath><clipPath
       clipPathUnits="userSpaceOnUse"
       id="clipPath344"><path
         id="path345"
         style="fill:#ff0000;fill-opacity:1;fill-rule:nonzero;stroke:none"
         d="m -2.30719,-2.62255 v 834.13086 h 349.47852 c 0.61063,-1.70002 1.27516,-3.38034 2.00195,-5.03516 1.07126,-2.43915 1.30941,-2.6848 2.42969,-5.01562 0.38103,-0.79276 0.73842,-1.5961 1.10742,-2.39453 1.20753,-2.94427 2.51575,-5.84637 3.7539,-8.77735 0.51435,-1.21759 1.69003,-4.21918 2.22461,-5.40429 0.45877,-1.01705 0.9699,-2.00896 1.45508,-3.01368 0.59061,-0.98841 1.16314,-1.98726 1.77149,-2.96484 1.58377,-2.54499 1.43159,-2.01597 2.77539,-4.44336 0.33158,-0.59896 0.61081,-1.22542 0.93554,-1.82812 0.69922,-1.2978 1.44225,-2.57269 2.15821,-3.86133 0.46728,-0.74767 1.82489,-2.88556 2.29492,-3.75196 0.29839,-0.54997 0.5423,-1.12692 0.82422,-1.68554 0.42019,-0.8326 0.86257,-1.65493 1.28125,-2.48828 0.39751,-0.79121 0.73803,-1.61265 1.16797,-2.38672 0.66845,-1.20351 1.41659,-2.36058 2.125,-3.54102 0.66824,-1.00378 1.32279,-2.01662 2.0039,-3.01172 0.50194,-0.73332 1.0492,-1.43434 1.54492,-2.17187 0.65739,-0.97809 1.72445,-3.0019 2.1836,-3.79883 1.59773,-2.77311 1.62357,-2.75621 3.23047,-5.28516 0.88006,-1.18983 1.83622,-2.36844 2.48828,-3.71093 1.62052,-3.33637 -1.8637,3.19081 1.28515,-2.73633 0.31833,-0.59921 0.66638,-1.18065 1,-1.77149 0.27461,-0.48108 0.53135,-0.97317 0.82422,-1.44336 0.13193,-0.21178 1.66422,-2.46002 1.92188,-2.93945 0.1167,-0.21716 0.1687,-0.46396 0.2539,-0.69531 0.26061,-0.54024 0.4926,-1.09638 0.78321,-1.62109 0.38748,-0.69962 0.83333,-1.36424 1.25,-2.04688 0.4234,-0.58582 0.85723,-1.16412 1.26953,-1.75781 1.07419,-1.54678 0.49757,-0.80859 1.44922,-2.32813 1.1361,-1.81405 2.3598,-3.57503 3.52148,-5.37304 1.81107,-2.7095 0.27324,-0.45404 1.91602,-2.76368 0.28021,-0.39395 0.8943,-1.32395 1.16015,-1.66992 3.07006,-3.99539 -0.32712,0.57802 1.57618,-1.99804 0.23312,-0.32516 0.47565,-0.6428 0.69921,-0.97461 0.40909,-0.60719 1.30916,-2.05555 1.69922,-2.67969 0.36258,-0.58018 0.74703,-1.1469 1.09766,-1.73438 0.0613,-0.10275 -0.13928,0.19382 -0.20898,0.29102 1.00806,-1.65103 0.64679,-1.15229 1.44531,-2.25 0.094,-0.12925 -0.1528,0.29046 -0.27735,0.39062 -0.0846,0.0681 0.10225,-0.19071 0.15235,-0.28711 0.0372,-0.0717 0.0585,-0.15399 0.10937,-0.21679 0.59565,-0.73397 1.21746,-1.44675 1.82617,-2.16992 l 7.89649,9.68945 c 0.46814,-0.60861 0.91263,-1.23641 1.4043,-1.82617 0.13457,-0.16143 -0.18423,0.3784 -0.28907,0.56054 -0.22765,0.39549 -0.4482,0.79431 -0.68945,1.18164 -0.0991,0.15919 -0.14961,0.41158 -0.33203,0.45508 -0.0294,0.007 -0.0336,-0.008 -0.0352,-0.0254 -0.16218,0.32955 -0.32165,0.66036 -0.49804,0.98242 -0.302,0.55137 -0.67433,1.0628 -1.00782,1.59571 -0.96454,1.54133 -1.91384,3.09634 -3.01367,4.54687 -0.32237,0.42215 -0.64444,0.84542 -0.9668,1.26758 -0.11735,0.1263 -0.2482,0.24241 -0.35351,0.37891 -0.21188,0.27462 -0.39929,0.56703 -0.59766,0.85156 -0.74096,1.06278 -1.51779,2.09627 -2.21484,3.18945 -0.43523,0.67294 -0.86709,1.34941 -1.30664,2.01953 -0.65158,0.9934 -1.34395,1.95999 -1.97461,2.9668 -1.29809,2.07233 -0.64847,1.23111 -2.10352,3.31641 -0.25398,0.364 -0.53275,0.71114 -0.79882,1.0664 -0.18345,0.26338 -0.39389,0.51102 -0.55079,0.79102 -0.65218,1.16388 -1.10838,2.42899 -1.75195,3.59765 -1.16707,2.11928 -0.61854,0.8291 -1.60547,2.41407 -0.29181,0.46864 -0.54663,0.96 -0.82031,1.43945 -0.6953,1.20188 -0.75133,1.24648 -1.37109,2.53125 -0.32086,0.66515 -0.59456,1.35173 -0.9336,2.00781 -0.77167,1.49326 -1.73979,2.89439 -2.78711,4.20508 -1.43,2.23765 -1.41528,2.16701 -2.86914,4.68555 -0.56859,0.98496 -1.09884,1.99256 -1.67578,2.97265 -1.31612,2.23581 -1.09631,1.69829 -2.56055,3.82422 -0.58465,0.84886 -1.14667,1.71228 -1.7207,2.56836 -0.5254,0.84633 -1.09306,1.66789 -1.57617,2.53906 -0.47085,0.84906 -0.84745,1.74766 -1.2832,2.61524 -0.36361,0.72394 -0.81042,1.40227 -1.17774,2.125 l 4.97266,2.65234 c 3.98486,-1.77413 8.82028,-3.36261 14.8789,-4.52343 0.59744,-0.11447 1.19397,-0.23768 1.79297,-0.34375 2.41971,-0.42849 3.21899,-0.48754 5.58399,-1.03516 2.89574,-0.67051 5.69384,-1.63275 8.50195,-2.59375 3.2143,-1.06229 6.31532,-2.41668 9.44531,-3.69531 3.70536,-1.51368 7.43392,-2.97773 11.15235,-4.45899 1.15653,-0.49017 2.31596,-0.96986 3.46875,-1.46875 2.39225,-1.03529 4.75096,-2.14552 7.14453,-3.17773 4.26574,-1.83955 8.60119,-3.50405 12.93945,-5.16211 1.37921,-0.53149 2.76383,-1.05105 4.13867,-1.59375 3.20037,-1.26331 3.91008,-1.5707 6.94922,-2.92969 2.76745,-1.23749 4.20177,-1.95256 7.07227,-3.125 1.46521,-0.59846 2.95055,-1.14739 4.42578,-1.7207 6.70515,-2.38124 13.30886,-5.04115 20.0332,-7.36914 4.68932,-1.62346 5.26378,-1.74222 9.94141,-3.14258 1.48272,-0.4175 2.9664,-0.83678 4.44922,-1.25391 2.20526,-0.62037 5.45188,-1.51257 7.67187,-2.20898 3.24206,-1.01702 6.42017,-2.22728 9.60156,-3.41602 6.62401,-2.68603 13.33949,-5.12687 20.04883,-7.58789 5.68038,-2.28128 11.49328,-4.20201 17.23828,-6.30664 3.51914,-1.26641 6.94146,-2.78916 10.53321,-3.85156 2.3367,-0.69117 4.73803,-1.22941 7.10742,-1.79297 3.78555,-0.6712 7.30454,-2.23111 10.93359,-3.41992 1.06546,-0.34903 2.14026,-0.66534 3.21094,-0.99805 4.85096,-1.40421 9.65915,-2.95797 14.51758,-4.33398 0.88879,-0.23456 1.77866,-0.46321 2.66601,-0.70313 1.93346,-0.52276 2.72123,-0.73342 4.54883,-1.33984 1.37938,-0.4577 2.73194,-0.99355 4.09375,-1.5 4.10862,-1.37959 8.33683,-2.37237 12.53711,-3.42969 2.83218,-0.75237 5.73472,-1.23362 8.56445,-1.99023 5.54417,-1.48238 10.20626,-2.07001 14.40821,-2.28125 l 6.77539,-7.85547 c 1.1211,1.0335 1.20999,1.05329 2.23437,2.26367 0.0487,0.0576 0.14678,0.17075 0.22071,0.25586 0.0104,0.009 0.0129,0.0121 0.0234,0.0215 0.38738,0.47422 0.79498,0.93268 1.19922,1.39453 0.71969,0.52583 1.43532,1.05636 2.10742,1.64063 0.46392,0.4033 1.17367,1.37529 1.82422,2.22266 l 4.46485,-4.66602 c 0.7987,0.76469 1.60277,1.52492 2.36328,2.32813 0.22592,0.2386 0.44427,0.48423 0.66406,0.72851 l 0.42969,-0.71484 c -0.34874,-0.23485 -0.69644,-0.47032 -1.04883,-0.69922 0.37467,0.19198 0.74837,0.38419 1.12305,0.57617 l -0.0742,0.12305 c 0.11107,0.0748 0.22641,0.14265 0.33789,0.21679 l 0.61133,-3.10156 0.084,0.0293 c -3.45915,-4.26208 -4.64646,-5.6221 -8.75391,-11.25195 -4.57324,-6.26831 -3.33174,-5.06494 -8.0957,-11.19727 -2.90825,-3.74359 -3.61291,-4.35151 -6.79883,-7.77344 -1.59423,-1.64601 -2.9393,-2.99924 -4.44726,-4.67383 -0.50723,-0.56328 -0.99364,-1.14412 -1.49024,-1.71679 -0.76937,-0.88721 -1.90756,-2.18609 -2.66015,-3.10547 -0.42066,-0.51388 -0.82568,-1.04214 -1.23828,-1.5625 -1.65134,-2.03831 -1.03773,-1.32189 -2.79883,-3.32813 -1.21745,-1.3869 -1.57067,-1.80643 -2.83594,-3.09765 -3.02104,-3.08298 0.56074,0.68704 -2.34961,-2.40235 -0.82678,-0.85421 -1.49697,-1.83823 -2.25391,-2.75 -0.14789,-0.17813 -0.31138,-0.34252 -0.46289,-0.51757 -0.23866,-0.27575 -0.47146,-0.5556 -0.70703,-0.83399 -0.30368,-0.35086 -0.60647,-0.70186 -0.91015,-1.05273 -0.23109,-0.25776 -0.46227,-0.51568 -0.69336,-0.77344 l 4.65429,-4.16992 c 0.2547,0.28458 0.51093,0.56893 0.76563,0.85351 0.3195,0.36937 0.63753,0.73807 0.95703,1.10742 0.20589,0.24401 0.40906,0.49032 0.61719,0.73243 0.22977,0.26729 0.47196,0.52582 0.69726,0.79687 0.39068,0.47002 0.74398,0.96986 1.13282,1.44141 0.24764,0.3003 0.50489,0.59085 0.75781,0.88672 2.44839,2.61444 -0.75958,-0.78337 2.33008,2.38086 1.31829,1.35011 1.77049,1.87545 3.01562,3.29687 1.8671,2.13146 1.27893,1.44491 2.98438,3.55078 0.37036,0.46874 0.73312,0.94381 1.11132,1.40625 0.75356,0.92142 1.8446,2.16311 2.61133,3.04883 0.4485,0.5181 0.88748,1.04713 1.34571,1.55664 1.47408,1.63904 2.89619,3.0693 4.44726,4.67188 3.4183,3.68754 4.12417,4.28917 7.23828,8.30078 4.91081,6.32612 3.45918,4.8411 8.07227,11.16992 4.55013,6.24244 4.96594,6.61551 9.69726,12.47266 1.641,1.95913 3.26793,3.9304 4.92383,5.87695 3.09903,3.64297 3.7531,4.23688 6.84961,7.85351 1.02987,1.20286 2.06486,2.40189 3.04883,3.64258 2.05085,2.5859 2.38965,3.2176 4.07617,5.79883 l -2.89648,1.59375 c 0.22956,0.15501 0.4515,0.32229 0.6914,0.46094 4.46345,2.57953 9.28518,4.45642 13.92578,6.67187 1.87102,0.89324 3.72296,1.82756 5.55469,2.79883 1.17787,0.62457 2.31554,1.32404 3.47266,1.98633 l -13.01563,21.69141 c -6.92943,-4.18411 -14.6714,-6.7485 -21.69922,-10.75391 -0.0686,-0.0391 -0.13292,-0.0853 -0.20117,-0.125 l -1.34961,1.64844 c -0.7938,-0.67894 -1.57291,-1.37506 -2.38086,-2.03711 -2.46775,-2.02214 -0.82007,-0.45685 -3.42968,-2.70313 -0.66526,-0.57263 -1.31192,-1.16892 -1.95313,-1.77148 -0.23929,0.30796 -0.46945,0.62303 -0.73047,0.91406 -0.58534,0.65265 -1.21243,1.2668 -1.81836,1.90039 -3.565,3.45003 -7.4537,6.60408 -11.8125,9.00391 -1.0511,0.5787 -2.14495,1.07982 -3.21679,1.61914 -0.45918,0.20414 -0.91835,0.4081 -1.37696,0.61328 -1.22327,1.69574 -2.64556,3.46806 -4.30468,5.31445 -2.09814,2.33497 -4.22205,4.64178 -6.5293,6.77539 -2.47556,2.28926 -4.06317,3.53118 -6.66797,5.67188 -3.24534,2.45536 -6.18853,5.27587 -9.32812,7.85742 -1.11335,0.91545 -2.21924,1.84217 -3.39649,2.67383 -3.89293,2.75014 -4.39342,2.76298 -8.74805,4.86133 -1.64263,0.58655 -3.26787,1.22391 -4.92773,1.75976 -2.41076,0.77826 -5.72587,1.6388 -8.45117,2.35547 -0.23705,0.14398 -0.44539,0.29557 -0.71289,0.45898 -3.68511,2.3359 -7.91851,3.53783 -12.06055,4.7793 -4.49164,1.32339 -9.08077,2.26838 -13.62305,3.39453 -3.58015,0.99139 -7.14255,2.04662 -10.70117,3.11328 -0.21174,0.1275 -0.42292,0.25527 -0.63476,0.38282 -0.29665,0.1916 -0.59176,0.38611 -0.89063,0.57422 -0.17348,0.10919 -0.33534,0.24164 -0.52539,0.31835 -0.0421,0.017 -0.0869,-0.076 -0.12695,-0.0547 -0.54717,0.28987 -1.26738,1.7217 -1.32617,1.8164 -0.45556,0.73369 -0.89409,1.47643 -1.3418,2.21485 -2.11366,3.42981 -4.24832,6.83713 -6.87305,9.91211 -3.25865,3.81765 -7.09364,7.07796 -11.29883,9.80859 -4.70651,2.6081 -5.9306,3.57791 -11.18164,5.25391 -4.12154,1.31549 -7.34159,1.77756 -11.57617,2.14843 -0.85044,0.8722 -1.91481,1.74595 -3.17969,2.60938 H 831.47211 V -2.62255 Z m 676.5332,695.48828 c 0.25492,0.12642 0.50909,0.25374 0.76368,0.38086 -0.31503,-0.18668 -1.02773,-0.5118 -0.76368,-0.38086 z m -5.65039,29.21484 c -2.96569,1.19998 -6.19812,2.34367 -10.02929,3.30274 -2.87303,0.71921 -5.77691,1.30067 -8.65235,2.01172 -3.3075,0.83258 -6.62788,1.63603 -9.89648,2.61133 -4.36463,1.6229 -8.76611,3.1352 -13.3086,4.19336 -3.12552,0.85806 -0.12623,0.009 -3.76562,1.12304 -3.36651,1.03019 -6.75354,1.99653 -10.12109,3.02344 -0.78099,0.2377 -1.56736,0.46079 -2.34375,0.71289 -2.22262,0.72166 -2.25159,0.828 -4.56836,1.63086 -2.89838,1.00442 -5.8476,1.86052 -8.84571,2.51367 -0.87947,0.20747 -4.10552,0.95453 -5.16992,1.25195 -3.29733,0.92182 -6.38491,2.44915 -9.625,3.53907 -5.73816,2.09078 -11.53415,4.02586 -17.20703,6.29492 -3.17338,1.16398 -6.36256,2.28843 -9.52539,3.48047 -3.47817,1.31088 -6.91069,2.74015 -10.38672,4.05664 -3.73915,1.39453 -7.47653,2.78905 -11.28711,3.98047 -2.31246,0.72301 -5.65944,1.64516 -7.98633,2.29883 -1.35627,0.38101 -2.714,0.76169 -4.07031,1.14257 -3.97939,1.18057 -4.57891,1.31337 -8.60547,2.70508 -6.53875,2.25999 -12.9572,4.8536 -19.47851,7.16211 -1.17757,0.45172 -2.36473,0.88072 -3.53321,1.35547 -2.68368,1.09039 -4.25074,1.87131 -6.91992,3.05859 -3.46394,1.5408 -4.45479,1.96384 -8.01562,3.36914 -1.39846,0.55191 -2.80611,1.08053 -4.20899,1.6211 -3.89693,1.48696 -7.79998,2.9664 -11.63086,4.61914 -2.55314,1.1015 -5.05927,2.31357 -7.625,3.38672 -1.31643,0.56782 -2.6421,1.11425 -3.96289,1.67187 -3.58951,1.42982 -7.18834,2.8406 -10.76562,4.30078 -3.6606,1.49419 -7.29528,3.06023 -11.05274,4.30469 -3.04904,1.03055 -4.60995,1.60574 -7.72851,2.46289 -2.82879,0.77751 -4.61082,1.1544 -7.45118,1.68164 -0.75932,0.14095 -1.52663,0.24229 -2.2871,0.37696 -0.6314,0.11181 -1.25889,0.24072 -1.88868,0.36132 -0.47212,0.0904 -0.87562,0.11973 -1.33789,0.20118 1.62804,-0.0503 3.26554,-0.13808 4.91797,0.19335 0.594,0.11916 1.13534,0.38627 1.66211,0.69336 0.41327,0.0225 0.97114,0.3158 1.44922,0.63868 0.3699,0.0841 0.74299,0.1522 1.11523,0.22461 0.0682,-0.0179 0.13472,-0.0416 0.20313,-0.0586 0.51907,-0.12876 1.04922,-0.20475 1.57422,-0.30664 0.39387,-0.0599 0.78699,-0.12519 1.18164,-0.17969 0.32164,-0.0444 0.6491,-0.0501 0.9668,-0.11718 0.84564,-0.17875 1.67758,-0.42362 2.51953,-0.61914 0.44885,-0.10424 0.9057,-0.17066 1.35351,-0.2793 3.93669,-0.95499 1.41301,-0.47134 3.79883,-0.90039 3.49719,-0.72367 6.99808,-1.45588 10.41797,-2.4961 6.79899,-1.45583 -1.29768,0.2365 4.33984,-0.83398 3.94524,-0.74914 7.83118,-1.86048 11.8418,-2.23633 0.11824,0.12376 0.10601,0.0543 -0.0156,0.20703 l 2.8711,-1.14843 c 4.11512,-1.37854 8.49704,-1.8152 12.78515,-2.24219 4.90509,-0.28899 5.77867,-0.28307 10.66016,-0.80274 1.47284,-0.15679 2.94863,-0.30655 4.41016,-0.54687 0.15623,-0.0257 8.1358,-1.66175 8.58789,-1.74805 1.32509,-0.25292 2.65629,-0.4723 3.98437,-0.70898 l 1.06836,8.01953 c 0.5345,-0.0348 1.06705,-0.0921 1.60156,-0.12695 4.11674,-0.25575 8.24507,-0.53421 12.33008,-1.11524 3.34971,-0.51539 6.70544,-0.98313 10.05274,-1.51172 0.68158,-0.15045 1.36768,-0.31886 2.05664,-0.47265 0.81616,-1.54548 1.76412,-3.01685 2.93945,-4.40821 0.88232,-0.93584 1.71301,-1.92173 2.64649,-2.80664 2.95808,-2.80445 6.41567,-5.13276 9.97265,-7.10156 1.35867,-0.75203 2.73709,-1.47366 4.15039,-2.11719 1.43024,-0.65125 2.91548,-1.17612 4.37305,-1.76367 1.51349,-0.47426 3.01078,-0.99765 4.53906,-1.42187 2.3376,-0.64887 6.31562,-1.46586 8.68555,-1.97461 4.60612,-0.98879 9.21686,-1.96518 13.76953,-3.1836 3.31768,-0.85616 6.63162,-1.72334 9.95117,-2.57226 4.18523,-1.0703 8.39601,-2.05697 12.56055,-3.20703 1.33789,-0.36947 2.66645,-0.76947 4,-1.1543 3.83624,-1.1306 5.10765,-1.52505 9.01953,-2.59766 0.91876,-0.25191 1.84356,-0.48682 2.76562,-0.72851 1.24473,-1.33723 2.2478,-2.87407 3.18946,-4.4336 1.39925,-2.2544 2.7037,-4.56661 4.15625,-6.78711 1.74118,-2.4773 3.55947,-4.9192 5.82031,-6.95507 1.78211,-1.6059 3.59636,-3.17249 5.64453,-4.4375 0.39782,-0.23517 0.78946,-0.4805 1.19336,-0.70508 1.5066,-0.8377 3.11863,-1.48937 4.73633,-2.07422 1.33856,-0.46987 2.69364,-0.88085 4.03906,-1.33008 0.93093,-0.26365 1.87313,-0.49983 2.76563,-0.88086 1.45974,-0.50566 1.16009,-0.42381 2.55664,-0.82617 0.14826,-0.0427 1.46891,-0.40042 1.68359,-0.47852 1.12133,-0.40781 1.65305,-0.73811 2.79883,-1.32422 2.44091,-1.29833 4.85743,-2.646 7.34766,-3.8496 2.58478,-1.24935 2.88601,-1.32037 5.43554,-2.42188 0.77422,-0.3345 1.54574,-0.67547 2.31836,-1.01367 0.66545,-0.31863 1.34378,-0.61211 1.9961,-0.95703 1.95036,-1.03143 3.71163,-2.35038 5.40625,-3.75391 -0.33823,-0.24525 -1.22291,-0.93825 -3.125,-2.46289 -0.62496,-0.50092 -1.19196,-1.06926 -1.78907,-1.60352 z m -255.25195,91.33204 c -0.2141,-0.0487 -0.42873,-0.0945 -0.64258,-0.14454 0.31425,0.20829 0.63218,0.40336 0.94922,0.60157 0.0429,-0.0127 0.086,-0.0245 0.12891,-0.0371 -0.15011,-0.15794 -0.0487,-0.15865 -0.43555,-0.41992 z m -0.64258,-0.14454 c -0.26484,-0.17552 -0.53538,-0.336 -0.80664,-0.49414 -0.20684,-0.0112 -0.38049,0.04 -0.48242,0.19922 0.43077,0.0925 0.85976,0.1945 1.28906,0.29492 z m 259.6836,-88.24023 c -0.14563,-0.078 0.82606,0.76204 1.1621,1.08594 0.0441,-0.0366 0.0869,-0.0745 0.13086,-0.11133 -0.0557,-0.0335 -0.0483,-0.0286 -0.12695,-0.0762 -0.77187,-0.61485 -1.09745,-0.86172 -1.16601,-0.89844 z m -293.86133,85.0957 c -1.58659,3.54273 -2.71007,7.2709 -4.0918,10.89844 0.1924,0.19 0.37573,0.39229 0.55273,0.60352 0.0659,-0.008 0.13117,-0.0158 0.19727,-0.0215 0.0515,-0.004 -0.0931,0.0549 -0.11523,0.10156 -0.001,0.003 -0.003,0.005 -0.004,0.008 0.0713,0.0826 0.14255,0.16629 0.21875,0.24218 -0.0737,0.54287 -0.1385,1.08594 -0.19531,1.63086 0.039,-0.10822 0.0597,-0.1684 0.10351,-0.28906 0.1824,-0.50251 0.37811,-1.00078 0.58399,-1.49414 0.0816,-0.19557 0.0681,-0.58986 0.27929,-0.57226 0.2313,0.0193 0.4254,0.0434 0.5918,0.0723 0.014,-0.0352 0.0393,-0.0616 0.0801,-0.0703 0.17813,-0.0378 0.32256,-0.0643 0.46289,-0.0898 0.34016,-0.18985 0.52992,-0.21433 0.63867,-0.13085 l 0.0215,-9.20313 c 0.82116,-0.0593 1.28728,-0.0963 2.64257,-0.0566 0.67311,0.0839 1.34762,0.15885 2.01954,0.25195 0.0328,0.005 0.0663,0.0122 0.0976,0.0195 0.0874,-0.0321 0.0979,-0.0826 0.19141,-0.11328 -1.69111,-0.4745 -3.10276,-1.08304 -4.27539,-1.78711 z m -2.59766,20.15039 c -0.27344,0.10498 -0.54685,0.19252 -0.82226,0.17774 -0.57101,0.77495 -1.61719,0.87903 -2.63868,0.88476 -0.10444,0.12916 -0.20613,0.1815 -0.30078,0.0957 -0.0369,-0.0334 -0.0672,-0.0635 -0.10156,-0.0957 -0.0716,-7.3e-4 -0.14435,-5e-4 -0.21484,-0.002 -0.22126,-0.002 -0.53445,-0.0823 -0.79493,-0.11133 -0.0257,0.0971 -0.0518,0.19565 -0.084,0.28516 h 5.07812 c 8.6e-4,-0.006 6e-4,-0.0135 0.002,-0.0195 0.005,-0.0352 0.0106,-0.0703 0.0156,-0.10547 -0.15614,-0.30771 0.10252,-0.71745 0.1543,-1.08008 -0.0971,-0.0111 -0.19462,-0.0206 -0.29297,-0.0293 z m 1.87695,0.0762 c -0.01,0.0664 -0.019,0.13293 -0.0293,0.19921 -0.002,0.16575 0.0205,0.34493 0.0293,0.51758 z m -16.66211,0.0742 c -0.13692,0.28869 -0.24335,0.48711 -0.4082,0.85743 -0.0334,0.0749 -0.0626,0.1515 -0.0957,0.22656 h 2.40234 l -0.86719,-0.94727 c -0.005,8.8e-4 -0.007,0.009 -0.0117,0.01 -0.34054,0.0435 -0.68433,-0.0534 -1.01954,-0.14649 z m 8.41797,0.84571 c -0.0232,0.0519 -0.0754,0.17037 -0.10547,0.23828 h 0.38282 c -0.0932,-0.0768 -0.18493,-0.15849 -0.27735,-0.23828 z m 8.24219,0.0547 c -0.007,0.0655 -0.0239,0.12631 -0.0469,0.18359 h 0.0469 z" /></clipPath></defs><g
     id="layer2"
     transform="translate(-814.36469,-113.41261)"><path
       id="path65"
       style="opacity:1;fill:#000000;fill-opacity:1;stroke:#000000;stroke-width:7"
       d="m 1231.1289,119.53516 c -108.9928,2.9e-4 -213.5215,43.29778 -290.59087,120.36753 -77.06939,77.06976 -120.36638,181.59862 -120.36615,290.59145 2.8e-4,108.99249 37.23182,222.6681 121.60077,291.66988 71.97935,58.86882 118.20435,95.22516 223.49505,112.96324 28.5857,-62.85432 -66.6688,45.95167 9.9061,-29.79943 l -6.3307,34.46722 c 14.803,-36.1738 31.2298,-76.45133 50.4362,-110.59193 14.7916,-20.62876 3.6704,-49.74805 1.3711,-74.46874 -1.9941,-21.43994 6.8857,-55.19668 -13.0801,-63.25977 -26.5355,-10.71621 -44.5556,37.22856 -70.8926,48.42383 -27.3364,11.62011 -57.549,17.89334 -87.2519,18.10547 -19.6751,0.14052 -41.2483,-0.78263 -57.96096,-11.16602 -9.10131,-5.65453 -13.82697,-17.02706 -19.43359,-25.60351 -13.85873,-10.83101 3.70598,-23.74387 8.01953,-34.85938 5.59711,-14.4231 13.81968,-27.83234 22.82812,-40.41016 8.9899,-12.55194 21.3154,-22.40559 30.8477,-34.55078 12.5557,-15.99741 29.3002,-30.63643 34.5507,-50.2832 3.3984,-12.71645 0.5621,-26.73322 -3.1445,-39.36328 -2.9954,-10.20665 -13.4441,-17.62391 -15.0527,-28.13867 -1.5333,-10.02249 1.1194,-20.82325 5.6719,-29.88282 5.5453,-11.03512 17.8055,-17.29159 25.0859,-27.26757 7.8896,-10.81085 12.4353,-23.75819 19.8496,-34.9004 10.0227,-15.06205 22.2354,-28.54653 33.1563,-42.9707 7.6543,-10.11 26.4504,-18.43006 22.6855,-30.53906 -8.6925,-27.95742 -54.3766,-33.92802 -83.1231,-28.37695 -16.7578,3.236 -25.8747,44.52596 -38.8124,33.39453 -16.7913,-14.44679 16.3828,-44.81598 35.3378,-56.27735 41.7508,-25.24517 101.7524,-32.05557 145.9278,-11.34375 18.7235,8.7786 17.6478,40.83185 35.8633,50.6211 3.1232,1.67845 6.5069,2.89816 10.0078,3.80664 5.9415,0.39684 11.8724,0.95904 17.7871,1.66015 6.8034,-0.36139 13.5578,-1.71158 19.6679,-3.95507 12.6984,-4.66254 17.1715,-23.21322 30.0879,-27.23243 24.6581,-7.67285 53.3064,-0.50936 76.7969,10.21875 26.1446,11.94026 41.3676,40.18195 64.5664,57.1504 18.6301,13.62671 45.3412,21.91844 59.4453,35.51171 21.4792,13.62232 15.4762,41.29571 -12.33,30.80079 -17.5947,-9.19041 -26.4101,-17.16477 -40.1348,-24.86719 -12.6472,-7.09771 -24.5416,-22.12807 -38.8281,-19.63281 -14.187,2.47789 -22.842,18.72973 -29.6661,31.4121 -7.6817,14.27625 -12.7122,31.21536 -11.1093,47.34766 3.4115,34.33472 34.0266,60.83898 43.0117,94.15234 7.6203,28.2533 6.4933,58.17992 8.623,87.36524 1.8906,25.90919 -4.498,53.19029 3.6856,77.8457 5.1408,15.48815 18.2506,27.06013 27.3867,40.58203 13.7498,20.3503 28.2837,38.70114 40.9133,59.47505 76.4944,-76.67713 120.0627,-178.92489 120.4539,-287.23286 2e-4,-108.99317 -43.297,-213.52234 -120.3668,-290.59215 -77.0699,-77.06981 -181.599,-120.36707 -290.5922,-120.36683 z m 48.3887,202.01757 c -6.0355,0.32061 -12.0858,-0.18065 -17.7871,-1.66015 -2.3182,-0.15484 -4.6329,-0.37769 -6.9551,-0.44336 -8.4004,-0.23757 -16.8049,0.40278 -25.2012,0.75586 -1.4272,0.06 -2.8496,0.23249 -4.2793,0.23242 L 1321.2344,330 c -7.0216,-2.70968 -14.4739,-3.99101 -21.8262,-5.47461 -5.9477,-1.20015 -11.9659,-2.04046 -17.9902,-2.76367 -0.6324,-0.0759 -1.2677,-0.13399 -1.9004,-0.20899 z m 44.9707,240.35157 -135.2403,130.00586 c 6.6281,-4.19351 14.667,-4.29283 21.8125,-6.98047 6.5494,-2.46344 13.1197,-4.99679 19.254,-8.36328 5.4884,-3.01202 10.6738,-6.6031 15.5644,-10.51172 10.0386,-8.02294 19.1974,-17.12913 28.0899,-26.40625 4.2813,-4.46655 8.5588,-8.99569 12.1289,-14.04883 3.0081,-4.25772 4.9473,-9.18847 7.7441,-13.58789 3.7524,-5.90255 8.3323,-11.25147 12.0996,-17.14453 3.0546,-4.77829 5.5011,-9.92362 8.4981,-14.73828 1.631,-2.62029 3.6401,-5.00191 5.1543,-7.69141 1.8993,-3.37344 2.2327,-7.5674 4.8945,-10.5332 z"
       clip-path="url(#clipPath337)" /><path
       style="opacity:1;fill:#000000;fill-opacity:1;stroke:#000000;stroke-width:7;stroke-opacity:1"
       d="m 981.28535,689.15167 c 4.9616,-0.4267 2.06983,0.16471 3.08483,0 0.32097,-0.0521 0.60448,-0.25639 0.92545,-0.30848 0.9135,-0.14824 1.87566,-0.21262 2.77635,0 0.22378,0.0528 0.39319,0.25565 0.61697,0.30848 0.90069,0.21262 1.87566,-0.21262 2.77635,0 0.22378,0.0528 0.39474,0.24946 0.61696,0.30848 1.79165,0.4758 3.70504,0.15828 5.5527,0.30849 2.88614,0.23463 5.75694,0.63062 8.63754,0.92545 4.2139,0.43129 8.4483,0.67976 12.6478,1.23393 1.8603,0.24548 3.6827,0.77068 5.5527,0.92545 0.7173,0.0594 1.4589,-0.16537 2.1594,0 0.2238,0.0528 0.4013,0.22871 0.617,0.30848 1.1929,0.44127 2.4394,0.77004 3.7018,0.92545 0.4082,0.0503 0.826,-0.0528 1.2339,0 2.0036,0.25921 3.8576,1.28321 5.8612,1.54242 0.5099,0.066 1.0503,-0.14899 1.5424,0 0.3548,0.10744 0.5829,0.47509 0.9254,0.61697 0.9688,0.40132 2.093,0.27663 3.0849,0.61696 0.435,0.14924 0.7864,0.51132 1.2339,0.61697 0.3002,0.0709 0.624,-0.0653 0.9255,0 1.2143,0.26303 2.3721,0.8347 3.3933,1.54242 0.3586,0.24849 0.6396,0.59588 0.9254,0.92545 0.3369,0.38842 0.5308,0.90449 0.9255,1.23393 0.3531,0.29465 0.8892,0.31264 1.2339,0.61697 1.1118,0.98146 1.5926,2.50469 2.4679,3.7018 0.3886,0.53148 0.9655,0.94121 1.2339,1.54241 0.51,1.14226 0.4868,2.45764 0.617,3.7018 0.2465,2.35441 0.565,4.74179 0.3085,7.09512 -0.173,1.58692 -0.5768,3.17248 -1.234,4.62725 -0.6105,1.35149 -1.7774,2.38932 -2.4678,3.7018 -0.2578,0.49008 -0.3334,1.06678 -0.617,1.54241 -0.4113,0.68981 -1.0773,1.19614 -1.5424,1.8509 -0.3472,0.48884 -0.5565,1.06982 -0.9255,1.54242 -0.2685,0.34385 -0.7585,0.52241 -0.9254,0.92545 -0.079,0.19 0.079,0.42697 0,0.61697 -0.1113,0.26871 -0.429,0.39504 -0.617,0.61696 -0.5718,0.67493 -0.9706,1.48445 -1.5424,2.15939 -0.564,0.66575 -1.3407,1.14308 -1.8509,1.8509 -0.2689,0.37306 -0.3653,0.84907 -0.617,1.23393 -0.4396,0.67212 -0.9602,1.29775 -1.5424,1.8509 -0.3727,0.35412 -0.9333,0.50837 -1.2339,0.92545 -0.1901,0.26379 -0.095,0.6798 -0.3085,0.92545 -0.1507,0.17371 -0.4663,0.13477 -0.617,0.30848 -0.2131,0.24565 -0.1375,0.64884 -0.3085,0.92545 -0.6881,1.11331 -1.9035,1.80114 -2.7763,2.77635 -0.4391,0.49061 -0.6405,1.2572 -1.2339,1.54242 -0.1854,0.0891 -0.442,-0.10812 -0.617,0 -0.1956,0.12088 -0.1459,0.45438 -0.3085,0.61696 -0.3252,0.32516 -0.9087,0.29181 -1.2339,0.61697 -0.1626,0.16259 -0.1291,0.4731 -0.3085,0.61697 -0.3307,0.26528 -0.9032,0.0432 -1.2339,0.30848 -0.1794,0.14387 -0.1129,0.49609 -0.3085,0.61697 -0.175,0.10812 -0.427,-0.0787 -0.617,0 -0.2687,0.1113 -0.3483,0.50566 -0.617,0.61696 -0.19,0.0787 -0.4168,-0.0472 -0.6169,0 -0.4476,0.10565 -0.9088,0.29177 -1.234,0.61697 -0.1626,0.16258 -0.1347,0.46632 -0.3084,0.61697 -0.2457,0.21307 -0.7354,0.0447 -0.9255,0.30848 -0.06,0.0834 0.073,0.23577 0,0.30848 -0.1454,0.14543 -0.4716,-0.14543 -0.617,0 -0.073,0.0727 0.054,0.22102 0,0.30849 -0.1209,0.19558 -0.4445,0.15632 -0.6169,0.30848 -0.2779,0.24537 -0.2901,0.75051 -0.617,0.92545 -0.091,0.0485 -0.2056,0 -0.3085,0 -0.5173,-0.22313 -0.708,0.53398 -1.1286,0.6181 -0.8115,0.16229 -1.6773,0.23484 -2.5086,0.3272 -0.3148,0.035 -0.668,-0.0523 -0.9815,0 -0.925,0.15415 -1.9888,0.17279 -2.9448,0.10906 -1.769,-0.11793 0.1668,-0.0861 -1.4179,-0.21813 -0.7285,-0.0607 -1.4549,-0.0364 -2.1813,-0.10906 -0.6237,-0.0624 -1.2349,-0.23875 -1.8541,-0.3272 -0.8602,-0.12289 -1.7544,-0.34994 -2.6175,-0.43626 -0.4109,-0.0411 -0.7968,-0.0419 -1.1998,-0.10907 -0.2268,-0.0378 -0.4313,-0.16236 -0.6543,-0.21813 -0.3597,-0.0899 -0.731,-0.12821 -1.0907,-0.21813 -0.2231,-0.0558 -0.4276,-0.18033 -0.6544,-0.21813 -0.757,-0.12616 0.1633,0.19985 -0.7634,-0.10906 -0.6915,-0.2305 -0.3365,-0.17404 -0.8726,-0.3272 -0.5972,-0.17064 -1.2845,-0.30124 -1.8541,-0.54533 -0.1205,-0.0516 -0.2067,-0.16649 -0.3272,-0.21813 -0.198,-0.0495 -0.5623,-0.12872 -0.7634,-0.21813 -0.44,-0.19552 -0.873,-0.46762 -1.3088,-0.65439 -0.1378,-0.059 -0.2985,-0.05 -0.4363,-0.10906 -0.1205,-0.0516 -0.2181,-0.14543 -0.3272,-0.21814 -0.21811,-0.10906 -0.42793,-0.23662 -0.65437,-0.32719 -0.39022,-0.15609 -0.81852,-0.24566 -1.19972,-0.43626 -0.67989,-0.33995 -1.29159,-0.75487 -1.96317,-1.09066 -0.25328,-0.12664 -0.67422,-0.45609 -0.87252,-0.65439 -0.56688,-0.56687 0.10339,-0.1136 -0.43626,-0.54532 -0.315,-0.252 -0.6672,-0.4186 -0.98159,-0.6544 -0.31813,-0.23859 -0.51757,-0.62663 -0.76346,-0.87252 -0.0575,-0.0575 -0.16065,-0.0516 -0.21813,-0.10906 -0.0575,-0.0575 -0.0603,-0.1531 -0.10907,-0.21813 -0.32379,-0.43173 -0.11603,-0.007 -0.54532,-0.43627 -0.0927,-0.0927 -0.13625,-0.22484 -0.21813,-0.32719 -0.19082,-0.23853 -0.4712,-0.41013 -0.6544,-0.65439 -0.0488,-0.065 -0.044,-0.16936 -0.10906,-0.21813 -0.092,-0.069 -0.23742,-0.0373 -0.3272,-0.10907 -0.10235,-0.0819 -0.13624,-0.22484 -0.21813,-0.3272 -0.7845,-0.98063 0.27616,0.38523 -0.43626,-0.32719 -0.30485,-0.30486 -0.5138,-0.71255 -0.87252,-0.98159 -0.36485,-0.27364 -0.60121,-0.6963 -0.98159,-0.98159 -0.74003,-0.55502 -1.33745,-1.33335 -2.07224,-1.96317 -0.95471,-0.81832 0.13726,0.18474 -0.54533,-0.3272 -0.24426,-0.18319 -0.41586,-0.46357 -0.65439,-0.65439 -0.30591,-0.24473 -0.67567,-0.40966 -0.98159,-0.65439 -0.23941,-0.19153 -0.41498,-0.46286 -0.65439,-0.65439 -0.10235,-0.0819 -0.24531,-0.11578 -0.32719,-0.21813 -0.0718,-0.0898 -0.0401,-0.23523 -0.10907,-0.3272 -0.039,-0.052 -0.63068,-0.51569 -0.65439,-0.54533 -0.0718,-0.0898 -0.0453,-0.23154 -0.10907,-0.32719 -0.67301,-1.00952 0.0163,0.25945 -0.65439,-0.54533 -0.10408,-0.1249 -0.12363,-0.30396 -0.21813,-0.43626 -0.0897,-0.12551 -0.22845,-0.20871 -0.32719,-0.3272 -0.39071,-0.46885 -0.0812,-0.1625 -0.3272,-0.65439 -0.16685,-0.33369 -0.45542,-0.57407 -0.65439,-0.87252 -0.36376,-0.54564 -0.58653,-1.06399 -0.87252,-1.63598 -0.35812,-0.71623 -0.8835,-1.44344 -1.19972,-2.18131 -0.51397,-1.19924 0.35437,0.3543 -0.3272,-0.87252 -0.92673,-1.66812 0.20119,0.32529 -0.65439,-0.87252 -0.189,-0.2646 -0.27493,-0.5902 -0.43626,-0.87252 -0.18827,-0.32947 -0.46613,-0.54306 -0.65439,-0.87253 -0.46259,-0.80952 0.0312,-0.0467 -0.43627,-0.98159 -0.20371,-0.40743 -0.42002,-0.8091 -0.65439,-1.19971 -0.35327,-0.58879 -0.35159,-0.30029 -0.65439,-0.98159 -0.0609,-0.13698 -0.0482,-0.29929 -0.10906,-0.43626 -0.22541,-0.50717 -0.58198,-0.95297 -0.87253,-1.41785 -0.35552,-0.56884 -0.65491,-1.15703 -0.98158,-1.74505 -0.40166,-0.72298 -0.97908,-1.30292 -1.30879,-2.07224 -0.15055,-0.35128 -0.17664,-0.73937 -0.32719,-1.09065 -0.1281,-0.29888 -0.33344,-0.56404 -0.43627,-0.87252 -0.10599,-0.31798 -0.11213,-0.66361 -0.21813,-0.98159 -0.6526,-1.95782 -0.97086,-4.14264 -0.76345,-6.21672 0.0637,-0.6367 0.35029,-1.15996 0.54532,-1.74505 0.17508,-0.52523 0.24218,-1.11841 0.43626,-1.63598 0.046,-0.12273 0.15951,-0.20995 0.21813,-0.32719 0.47739,-0.95477 0.0148,-0.14847 0.3272,-0.98159 0.21078,-0.56208 0.51952,-1.08713 0.76346,-1.63598 0.63745,-1.43427 1.26375,-2.90607 2.07224,-4.25355 0.31021,-0.51702 0.70873,-0.9812 0.98159,-1.52691 0.0875,-0.17511 0.11437,-0.37931 0.21813,-0.54533 0.0817,-0.1308 0.24164,-0.19886 0.32719,-0.3272 0.0638,-0.0956 0.052,-0.22737 0.10907,-0.32719 0.42687,-0.74702 0.96734,-1.41941 1.52691,-2.07224 0.29208,-0.34076 0.67546,-0.5664 0.98159,-0.87253 0.30955,-0.30955 0.5223,-0.71892 0.87252,-0.98158 0.4034,-0.30255 0.88814,-0.48303 1.30879,-0.76346 0.46581,-0.31054 0.82519,-0.71974 1.22444,-1.1227 z"
       id="path64" /><path
       style="opacity:1;fill:#000000;fill-opacity:1;stroke:#000000;stroke-width:7"
       d="m 1172.6703,521.76846 c -0.3599,-17.71407 24.1249,-34.20038 41.7907,-32.84506 12.361,0.94833 29.2365,15.38703 25.3935,27.17366 -6.2416,19.14351 -39.674,15.7034 -59.3315,11.3428 -3.1522,-0.69926 -7.7871,-2.44321 -7.8527,-5.6714 z"
       id="path63" /><path
       style="fill:#000000;fill-opacity:1;stroke:#000000;stroke-width:4.87318"
       d="m 1089.5054,500.99687 c 0.2045,-15.11846 -13.6995,-29.18909 -23.7313,-28.03237 -7.0191,0.80939 -16.6021,13.13242 -14.4198,23.19199 3.5443,16.33845 22.5292,13.4024 33.6918,9.68076 1.7901,-0.59678 4.422,-2.08521 4.4593,-4.84038 z"
       id="path63-4" /><path
       style="fill:none;stroke:#000000;stroke-width:6.10766"
       d="M 409.01709,0.47886489 C 317.17493,1.5191431 226.18109,34.356364 154.77826,92.108749 133.30162,109.65252 113.73438,129.54695 95.587872,150.48863 c -48.069275,57.962 -79.757276,129.16914 -90.7094163,203.6708 -5.23980611,31.15352 -4.45636777,62.91133 -3.2169137,94.35465 7.1251046,80.09127 37.096465,158.23705 87.107505,221.36559 51.302893,65.34471 122.457873,114.90936 201.853743,139.55641 70.87488,22.55861 147.937,25.1173 220.15062,7.29481 68.14422,-16.72417 132.03019,-50.77784 183.46824,-98.56474 3.03925,-3.17453 14.52008,-12.91345 16.75508,-16.60085 -1.09546,-2.74697 -10.92333,1.68961 -14.03356,3.54027 -113.26125,35.47311 -226.03962,72.52663 -339.51693,107.29641 -2.00324,0.52134 0.68265,-3.24156 0.67143,-4.20924 14.80306,-34.25645 32.71386,-67.04859 50.36783,-99.88306 8.01648,-15.92001 3.84893,-34.43583 1.24904,-51.16899 -3.97023,-22.1879 -1.22908,-44.94702 -4.04564,-67.22854 -1.82306,-6.77765 -6.03958,-13.74215 -12.35676,-16.82333 5.70114,-3.58301 12.86604,-4.91633 18.71263,-8.53692 20.7563,-10.47187 37.05972,-27.75564 52.55985,-44.69207 10.03512,-11.05181 16.24396,-24.79692 25.13908,-36.69567 6.36578,-10.70482 14.35641,-20.7587 18.61316,-32.54376 1.36563,-2.60501 -0.74411,-5.21566 -3.55145,-4.11722 -10.79276,7.1008 -19.2838,17.28623 -28.9361,25.83157 -36.56284,34.69707 -72.30991,70.29662 -109.27181,104.54239 -16.14649,13.12465 -27.40833,31.92477 -45.40696,42.7928 -31.30143,14.33767 -66.26484,19.90849 -100.53436,19.158 -1.05763,-0.0163 -5.46227,-0.2767 -2.9209,-1.95976 9.71903,-7.87722 17.55758,-18.10528 23.6808,-28.96026 3.47684,-8.56544 2.33969,-19.48319 -5.23684,-25.54513 -5.33189,-5.50524 -13.8596,-5.24027 -20.7582,-7.41645 -15.7681,-2.94721 -32.26155,-4.21097 -48.00578,-5.18742 4.14154,-12.28295 11.4248,-23.48009 18.78291,-34.12548 14.77105,-19.82316 32.96783,-36.80854 48.21824,-56.27367 12.12973,-13.83458 23.42514,-30.91209 21.60931,-50.18605 -1.3498,-11.91093 -2.98462,-24.59408 -9.97436,-34.69469 8.99868,-0.20467 19.65104,0.51512 26.99025,-5.61857 4.03335,-6.93304 -0.48288,-15.41381 -4.12403,-21.54381 -4.88056,-7.78277 -15.19146,-15.85028 -24.56355,-10.67647 -2.86211,1.10512 -4.75638,4.85029 -7.20854,5.81455 2.12089,-12.10248 10.10229,-22.02198 19.33945,-29.70923 16.63468,-13.80178 22.02384,-35.793 35.08285,-52.37107 13.72151,-18.17006 27.40969,-36.6265 44.61412,-51.69684 5.71774,-5.07962 9.68708,-13.53941 5.28626,-20.75479 -8.52714,-18.2265 -29.40798,-25.6674 -48.04656,-28.1137 -13.38329,-1.56671 -27.42631,-1.97471 -40.43268,1.96359 -13.15979,7.23994 -17.82573,23.05484 -28.27347,33.06553 -4.43053,3.01996 -8.44351,-3.67425 -7.87827,-7.67035 0.83737,-12.00493 10.68757,-20.86403 18.58284,-28.97727 34.35864,-30.40999 82.92887,-42.35599 127.91062,-35.98477 13.07026,2.39689 26.8223,5.00683 38.06891,12.4522 12.14271,10.83101 13.74453,28.6725 23.96655,40.97642 0.64383,1.30121 3.41464,2.88559 2.96066,4.23627 -6.50121,0.92759 -13.18254,0.84351 -19.6505,1.51157 -0.45833,2.73256 -0.28581,7.17634 3.68777,6.55244 30.38828,3.18379 60.83895,6.3809 91.27744,8.68433 0.72223,-2.28323 3.86669,-6.82897 -0.68577,-6.51521 -6.54315,-1.94244 -13.45568,-3.05338 -19.87645,-5.15989 11.5391,-5.33488 16.74838,-17.95471 26.46538,-25.4429 12.98004,-6.65504 28.4841,-5.56771 42.50991,-3.47986 23.08872,4.11102 46.37362,13.26905 62.23673,31.22725 17.0476,17.4494 33.30229,36.75202 55.68504,47.58096 16.66139,9.43726 35.35015,16.82341 48.53918,31.18416 4.67264,5.18283 6.84582,15.73709 -0.33913,19.69822 -10.00344,4.4113 -20.0649,-3.21736 -28.49805,-7.85296 -16.42901,-10.44481 -32.80436,-20.95034 -48.62988,-32.27456 -8.78587,-6.21217 -21.48925,-7.33189 -30.15826,-0.27096 -12.88861,9.91432 -19.88955,25.39425 -26.36824,39.87019 -8.40346,19.83661 -8.97585,43.29215 1.11971,62.63618 12.17845,27.10683 33.4857,50.44271 38.14022,80.60429 6.91088,42.35687 5.42373,85.44968 5.99205,128.20098 0.0863,15.25702 3.73143,30.82005 13.22847,43.05822 20.98495,27.1871 40.44926,55.5503 59.46175,84.12895 3.08776,4.04276 7.52443,-0.70049 9.77329,-3.18334 43.76988,-45.71977 77.37029,-101.18033 96.52612,-161.56437 C 838.443,447.88697 834.33887,346.34711 797.5462,257.81761 763.35283,173.30649 700.01769,101.20156 621.03604,55.785601 557.02998,18.694257 482.99738,-0.66046486 409.01709,0.47886489 Z"
       id="path8"
       transform="translate(816.67188,116.03516)"
       clip-path="url(#clipPath344)" /></g></svg>
